<svg id="kity_svg_6" xmlns="http://www.w3.org/2000/svg" xmlns:xlink="http://www.w3.org/1999/xlink" version="1.1" width="1108" height="781" style="background-color: rgb(251, 251, 251); visibility: visible;" viewBox="0 0 1108 781"><defs id="kity_defs_7"><linearGradient id="kity_linearGradient_17" x1="0" y1="0" x2="0" y2="1"><stop id="kity_stop_18" offset="0" stop-color="rgb(255, 255, 255)"></stop><stop id="kity_stop_19" offset="1" stop-color="rgb(204, 204, 204)"></stop></linearGradient><marker id="kity_marker_2" orient="auto" refX="6" refY="0" viewBox="-7 -7 14 14" markerWidth="7" markerHeight="7" markerUnits="userSpaceOnUse"><path id="kity_path_3" fill="rgb(115, 161, 191)" stroke="none" d="M6,0A6,6,0,1,1,-6,0A6,6,0,1,1,6,0"></path></marker></defs><g id="kity_g_8"><g id="minder1" text-rendering="optimize-speed"><g id="minder_connect_group1"><path id="kity_path_31" fill="none" stroke="rgb(115, 161, 191)" stroke-width="1" d="M462,505.5A160.5,344,0,0,1,622.5,161.5"></path><path id="kity_path_33" fill="none" stroke="rgb(115, 161, 191)" stroke-width="1" d="M721.5,161.5C736.5,161.5,736.5,45.5,751.5,45.5L856.5,45.5"></path><path id="kity_path_35" fill="none" stroke="rgb(115, 161, 191)" stroke-width="1" d="M721.5,161.5C736.5,161.5,736.5,97.5,751.5,97.5L937.5,97.5"></path><path id="kity_path_37" fill="none" stroke="rgb(115, 161, 191)" stroke-width="1" d="M721.5,161.5C736.5,161.5,736.5,175.5,751.5,175.5L835.5,175.5"></path><path id="kity_path_39" fill="none" stroke="rgb(115, 161, 191)" stroke-width="1" d="M835.5,175.5C850.5,175.5,850.5,201.5,865.5,201.5L962.5,201.5"></path><path id="kity_path_41" fill="none" stroke="rgb(115, 161, 191)" stroke-width="1" d="M721.5,161.5C736.5,161.5,736.5,253.5,751.5,253.5L829.5,253.5"></path><path id="kity_path_43" fill="none" stroke="rgb(115, 161, 191)" stroke-width="1" d="M829.5,253.5C844.5,253.5,844.5,253.5,859.5,253.5L928.5,253.5"></path><path id="kity_path_45" fill="none" stroke="rgb(115, 161, 191)" stroke-width="1" d="M721.5,161.5C736.5,161.5,736.5,305.5,751.5,305.5L889.5,305.5"></path><path id="kity_path_47" fill="none" stroke="rgb(115, 161, 191)" stroke-width="1" d="M462,505.5A160.5,57,0,0,1,622.5,448.5"></path><path id="kity_path_49" fill="none" stroke="rgb(115, 161, 191)" stroke-width="1" d="M708.5,448.5C723.5,448.5,723.5,393.5,738.5,393.5L845.5,393.5"></path><path id="kity_path_51" fill="none" stroke="rgb(115, 161, 191)" stroke-width="1" d="M952.5,367.5C967.5,367.5,967.5,367.5,982.5,367.5L1055.5,367.5"></path><path id="kity_path_53" fill="none" stroke="rgb(115, 161, 191)" stroke-width="1" d="M845.5,393.5C860.5,393.5,860.5,367.5,875.5,367.5L952.5,367.5"></path><path id="kity_path_55" fill="none" stroke="rgb(115, 161, 191)" stroke-width="1" d="M845.5,393.5C860.5,393.5,860.5,419.5,875.5,419.5L953.5,419.5"></path><path id="kity_path_57" fill="none" stroke="rgb(115, 161, 191)" stroke-width="1" d="M708.5,448.5C723.5,448.5,723.5,471.5,738.5,471.5L839.5,471.5"></path><path id="kity_path_59" fill="none" stroke="rgb(115, 161, 191)" stroke-width="1" d="M839.5,471.5C854.5,471.5,854.5,471.5,869.5,471.5L1088.5,471.5"></path><path id="kity_path_61" fill="none" stroke="rgb(115, 161, 191)" stroke-width="1" d="M462,505.5A160.5,152,0,0,0,622.5,657.5"></path><path id="kity_path_63" fill="none" stroke="rgb(115, 161, 191)" stroke-width="1" d="M697.5,657.5C712.5,657.5,712.5,593.5,727.5,593.5L787.5,593.5"></path><path id="kity_path_65" fill="none" stroke="rgb(115, 161, 191)" stroke-width="1" d="M697.5,657.5C712.5,657.5,712.5,645.5,727.5,645.5L798.5,645.5"></path><path id="kity_path_67" fill="none" stroke="rgb(115, 161, 191)" stroke-width="1" d="M697.5,657.5C712.5,657.5,712.5,697.5,727.5,697.5L837.5,697.5"></path><path id="kity_path_69" fill="none" stroke="rgb(115, 161, 191)" stroke-width="1" d="M697.5,657.5C712.5,657.5,712.5,749.5,727.5,749.5L820.5,749.5"></path><path id="kity_path_71" fill="none" stroke="rgb(115, 161, 191)" stroke-width="1" d="M462,505.5A179.5,294,0,0,0,282.5,211.5"></path><path id="kity_path_81" fill="none" stroke="rgb(115, 161, 191)" stroke-width="1" d="M462,505.5A160.5,148,0,0,0,301.5,357.5"></path><path id="kity_path_83" fill="none" stroke="rgb(115, 161, 191)" stroke-width="1" d="M195.5,357.5C180.5,357.5,180.5,345.5,165.5,345.5L62.5,345.5"></path><path id="kity_path_85" fill="none" stroke="rgb(115, 161, 191)" stroke-width="1" d="M195.5,357.5C180.5,357.5,180.5,397.5,165.5,397.5L72.5,397.5"></path><path id="kity_path_87" fill="none" stroke="rgb(115, 161, 191)" stroke-width="1" d="M462,505.5A160.5,148,0,0,1,301.5,653.5"></path><path id="kity_path_302" fill="none" stroke="rgb(115, 161, 191)" stroke-width="1" d="M835.5,175.5C850.5,175.5,850.5,149.5,865.5,149.5L932.5,149.5"></path><path id="kity_path_318" fill="none" stroke="rgb(115, 161, 191)" stroke-width="1" d="M953.5,419.5C968.5,419.5,968.5,419.5,983.5,419.5L1065.5,419.5"></path><path id="kity_path_326" fill="none" stroke="rgb(115, 161, 191)" stroke-width="1" d="M708.5,448.5C723.5,448.5,723.5,531.5,738.5,531.5L966.5,531.5"></path><path id="kity_path_340" fill="none" stroke="rgb(115, 161, 191)" stroke-width="1" d="M462,505.5A160.5,34,0,0,0,301.5,471.5"></path><path id="kity_path_364" fill="none" stroke="rgb(115, 161, 191)" stroke-width="1" d="M202.5,471.5C187.5,471.5,187.5,459.5,172.5,459.5L108.5,459.5"></path><path id="kity_path_409" fill="none" stroke="rgb(115, 161, 191)" stroke-width="1" d="M225.5,653.5C210.5,653.5,210.5,581.5,195.5,581.5L65.5,581.5"></path><path id="kity_path_410" fill="none" stroke="rgb(115, 161, 191)" stroke-width="1" d="M225.5,653.5C210.5,653.5,210.5,641.5,195.5,641.5L20.5,641.5"></path><path id="kity_path_411" fill="none" stroke="rgb(115, 161, 191)" stroke-width="1" d="M225.5,653.5C210.5,653.5,210.5,701.5,195.5,701.5L47.5,701.5"></path><path id="kity_path_413" fill="none" stroke="rgb(115, 161, 191)" stroke-width="1" d="M225.5,653.5C210.5,653.5,210.5,761.5,195.5,761.5L90.5,761.5"></path><path id="kity_path_426" fill="none" stroke="rgb(115, 161, 191)" stroke-width="1" d="M202.5,471.5C187.5,471.5,187.5,511.5,172.5,511.5L67.5,511.5"></path><path id="kity_path_442" fill="none" stroke="rgb(115, 161, 191)" stroke-width="1" d="M196.5,211.5C181.5,211.5,181.5,173.5,166.5,173.5L110.5,173.5"></path><path id="kity_path_443" fill="none" stroke="rgb(115, 161, 191)" stroke-width="1" d="M196.5,211.5C181.5,211.5,181.5,225.5,166.5,225.5L94.5,225.5"></path><path id="kity_path_444" fill="none" stroke="rgb(115, 161, 191)" stroke-width="1" d="M196.5,211.5C181.5,211.5,181.5,277.5,166.5,277.5L71.5,277.5"></path></g><g id="minder_node1"><path id="node_outline1" fill="rgb(115, 161, 191)" stroke="rgb(115, 161, 191)" d="M424.5,485.5h75a5,5,0,0,1,5,5v30a5,5,0,0,1,-5,5h-75a5,5,0,0,1,-5,-5v-30a5,5,0,0,1,5,-5z" stroke-width="3"></path><g id="node_text1" fill="white"><text id="kity_text_22" text-rendering="inherit" font-size="16" dy=".8em" y="497.5" x="443.5">NvTK</text></g></g><g id="kity_g_14" display="none"><path id="kity_path_15" fill="rgba(0, 92, 153, 0.5)" stroke="none" d="M195.5,319.5h104v20h-104z"></path><path id="kity_path_16" fill="none" stroke="rgb(0, 76, 128)" d="M195.5,339.5L299.5,339.5" stroke-width="1"></path></g><g id="minder_node2"><g id="node_expander8" style="cursor: pointer;"><path id="kity_path_227" fill="white" stroke="gray" d="M623.5,161.5A6,6,0,1,1,611.5,161.5A6,6,0,1,1,623.5,161.5"></path><path id="kity_path_228" fill="none" stroke="gray" d="M613,161.5L622,161.5"></path></g><path id="node_outline9" fill="rgb(238, 243, 246)" stroke="rgb(115, 161, 191)" d="M627.5,148.5h91a3,3,0,0,1,3,3v20a3,3,0,0,1,-3,3h-91a3,3,0,0,1,-3,-3v-20a3,3,0,0,1,3,-3z" stroke-width="1"></path><g id="node_text9" fill="black"><text id="kity_text_109" text-rendering="inherit" font-size="14" dy=".8em" y="154.5" x="644.5">Modules</text></g></g><g id="minder_node3"><g id="node_expander1" display="none" style="cursor: pointer;"><path id="kity_path_206" fill="white" stroke="gray" d="M761.5,31.5A6,6,0,1,1,749.5,31.5A6,6,0,1,1,761.5,31.5"></path><path id="kity_path_207" fill="none" stroke="gray"></path></g><path id="node_outline2" fill="none" stroke="none" d="M766.5,20.5h85a5,5,0,0,1,5,5v12a5,5,0,0,1,-5,5h-85a5,5,0,0,1,-5,-5v-12a5,5,0,0,1,5,-5z" stroke-width="3"></path><g id="node_text2" fill="black"><text id="kity_text_95" text-rendering="inherit" font-size="12" dy=".8em" y="25.5" x="771.5">BasicModule</text></g></g><g id="minder_node4"><g id="node_expander2" display="none" style="cursor: pointer;"><path id="kity_path_209" fill="white" stroke="gray" d="M761.5,83.5A6,6,0,1,1,749.5,83.5A6,6,0,1,1,761.5,83.5"></path><path id="kity_path_210" fill="none" stroke="gray"></path></g><path id="node_outline3" fill="none" stroke="none" d="M766.5,72.5h166a5,5,0,0,1,5,5v12a5,5,0,0,1,-5,5h-166a5,5,0,0,1,-5,-5v-12a5,5,0,0,1,5,-5z" stroke-width="3"></path><g id="node_text3" fill="black"><text id="kity_text_97" text-rendering="inherit" font-size="12" dy=".8em" y="77.5" x="771.5">CNN/RNN/Linear/Predictor</text></g></g><g id="minder_node5"><g id="node_expander4" style="cursor: pointer;"><path id="kity_path_215" fill="white" stroke="gray" d="M761.5,161.5A6,6,0,1,1,749.5,161.5A6,6,0,1,1,761.5,161.5"></path><path id="kity_path_216" fill="none" stroke="gray" d="M751,161.5L760,161.5"></path></g><path id="node_outline5" fill="none" stroke="none" d="M766.5,150.5h64a5,5,0,0,1,5,5v12a5,5,0,0,1,-5,5h-64a5,5,0,0,1,-5,-5v-12a5,5,0,0,1,5,-5z" stroke-width="3"></path><g id="node_text5" fill="black"><text id="kity_text_101" text-rendering="inherit" font-size="12" dy=".8em" y="155.5" x="771.5">Attention</text></g></g><g id="minder_node6"><g id="node_expander3" display="none" style="cursor: pointer;"><path id="kity_path_212" fill="white" stroke="gray" d="M875.5,187.5A6,6,0,1,1,863.5,187.5A6,6,0,1,1,875.5,187.5"></path><path id="kity_path_213" fill="none" stroke="gray"></path></g><path id="node_outline4" fill="none" stroke="none" d="M880.5,176.5h77a5,5,0,0,1,5,5v12a5,5,0,0,1,-5,5h-77a5,5,0,0,1,-5,-5v-12a5,5,0,0,1,5,-5z" stroke-width="3"></path><g id="node_text4" fill="black"><text id="kity_text_99" text-rendering="inherit" font-size="12" dy=".8em" y="181.5" x="885.5">Transformer</text></g></g><g id="minder_node7"><g id="node_expander6" style="cursor: pointer;"><path id="kity_path_221" fill="white" stroke="gray" d="M761.5,239.5A6,6,0,1,1,749.5,239.5A6,6,0,1,1,761.5,239.5"></path><path id="kity_path_222" fill="none" stroke="gray" d="M751,239.5L760,239.5"></path></g><path id="node_outline7" fill="none" stroke="none" d="M766.5,228.5h58a5,5,0,0,1,5,5v12a5,5,0,0,1,-5,5h-58a5,5,0,0,1,-5,-5v-12a5,5,0,0,1,5,-5z" stroke-width="3"></path><g id="node_text7" fill="black"><text id="kity_text_105" text-rendering="inherit" font-size="12" dy=".8em" y="233.5" x="771.5">Residual</text></g></g><g id="minder_node8"><g id="node_expander5" display="none" style="cursor: pointer;"><path id="kity_path_218" fill="white" stroke="gray" d="M869.5,239.5A6,6,0,1,1,857.5,239.5A6,6,0,1,1,869.5,239.5"></path><path id="kity_path_219" fill="none" stroke="gray"></path></g><path id="node_outline6" fill="none" stroke="none" d="M874.5,228.5h49a5,5,0,0,1,5,5v12a5,5,0,0,1,-5,5h-49a5,5,0,0,1,-5,-5v-12a5,5,0,0,1,5,-5z" stroke-width="3"></path><g id="node_text6" fill="black"><text id="kity_text_103" text-rendering="inherit" font-size="12" dy=".8em" y="233.5" x="879.5">Resnet</text></g></g><g id="minder_node9"><g id="node_expander7" display="none" style="cursor: pointer;"><path id="kity_path_224" fill="white" stroke="gray" d="M761.5,291.5A6,6,0,1,1,749.5,291.5A6,6,0,1,1,761.5,291.5"></path><path id="kity_path_225" fill="none" stroke="gray"></path></g><path id="node_outline8" fill="none" stroke="none" d="M766.5,280.5h118a5,5,0,0,1,5,5v12a5,5,0,0,1,-5,5h-118a5,5,0,0,1,-5,-5v-12a5,5,0,0,1,5,-5z" stroke-width="3"></path><g id="node_text8" fill="black"><text id="kity_text_107" text-rendering="inherit" font-size="12" dy=".8em" y="285.5" x="771.5">loss, &#xa0;penalty, et. al</text></g></g><g id="minder_node10"><g id="node_expander15" style="cursor: pointer;"><path id="kity_path_248" fill="white" stroke="gray" d="M623.5,448.5A6,6,0,1,1,611.5,448.5A6,6,0,1,1,623.5,448.5"></path><path id="kity_path_249" fill="none" stroke="gray" d="M613,448.5L622,448.5"></path></g><path id="node_outline16" fill="rgb(238, 243, 246)" stroke="rgb(115, 161, 191)" d="M627.5,435.5h78a3,3,0,0,1,3,3v20a3,3,0,0,1,-3,3h-78a3,3,0,0,1,-3,-3v-20a3,3,0,0,1,3,-3z" stroke-width="1"></path><g id="node_text16" fill="black"><text id="kity_text_123" text-rendering="inherit" font-size="14" dy=".8em" y="441.5" x="644.5">model</text></g></g><g id="minder_node11"><g id="node_expander12" style="cursor: pointer;"><path id="kity_path_239" fill="white" stroke="gray" d="M748.5,379.5A6,6,0,1,1,736.5,379.5A6,6,0,1,1,748.5,379.5"></path><path id="kity_path_240" fill="none" stroke="gray" d="M738,379.5L747,379.5"></path></g><path id="node_outline13" fill="none" stroke="none" d="M753.5,368.5h87a5,5,0,0,1,5,5v12a5,5,0,0,1,-5,5h-87a5,5,0,0,1,-5,-5v-12a5,5,0,0,1,5,-5z" stroke-width="3"></path><g id="node_text13" fill="black"><text id="kity_text_117" text-rendering="inherit" font-size="12" dy=".8em" y="373.5" x="758.5">Architetcures</text></g></g><g id="minder_node12" opacity="1"><g id="node_expander9" display="none" style="cursor: pointer;"><path id="kity_path_230" fill="white" stroke="gray" d="M992.5,353.5A6,6,0,1,1,980.5,353.5A6,6,0,1,1,992.5,353.5"></path><path id="kity_path_231" fill="none" stroke="gray"></path></g><path id="node_outline10" fill="none" stroke="none" d="M997.5,342.5h53a5,5,0,0,1,5,5v12a5,5,0,0,1,-5,5h-53a5,5,0,0,1,-5,-5v-12a5,5,0,0,1,5,-5z" stroke-width="3"></path><g id="node_text10" fill="black"><text id="kity_text_111" text-rendering="inherit" font-size="12" dy=".8em" y="347.5" x="1002.5">embed</text></g></g><g id="minder_node13"><g id="node_expander10" style="cursor: pointer;"><path id="kity_path_233" fill="white" stroke="gray" d="M885.5,353.5A6,6,0,1,1,873.5,353.5A6,6,0,1,1,885.5,353.5"></path><path id="kity_path_234" fill="none" stroke="gray" d="M875,353.5L884,353.5"></path></g><path id="node_outline11" fill="none" stroke="none" d="M890.5,342.5h57a5,5,0,0,1,5,5v12a5,5,0,0,1,-5,5h-57a5,5,0,0,1,-5,-5v-12a5,5,0,0,1,5,-5z" stroke-width="3"></path><g id="node_text11" fill="black"><text id="kity_text_113" text-rendering="inherit" font-size="12" dy=".8em" y="347.5" x="895.5">encode</text></g></g><g id="minder_node14"><g id="node_expander11" style="cursor: pointer;"><path id="kity_path_236" fill="white" stroke="gray" d="M885.5,405.5A6,6,0,1,1,873.5,405.5A6,6,0,1,1,885.5,405.5"></path><path id="kity_path_237" fill="none" stroke="gray" d="M875,405.5L884,405.5"></path></g><path id="node_outline12" fill="none" stroke="none" d="M890.5,394.5h58a5,5,0,0,1,5,5v12a5,5,0,0,1,-5,5h-58a5,5,0,0,1,-5,-5v-12a5,5,0,0,1,5,-5z" stroke-width="3"></path><g id="node_text12" fill="black"><text id="kity_text_115" text-rendering="inherit" font-size="12" dy=".8em" y="399.5" x="895.5">decode</text></g></g><g id="minder_node15"><g id="node_expander14" style="cursor: pointer;"><path id="kity_path_245" fill="white" stroke="gray" d="M748.5,457.5A6,6,0,1,1,736.5,457.5A6,6,0,1,1,748.5,457.5"></path><path id="kity_path_246" fill="none" stroke="gray" d="M738,457.5L747,457.5"></path></g><path id="node_outline15" fill="none" stroke="none" d="M753.5,446.5h81a5,5,0,0,1,5,5v12a5,5,0,0,1,-5,5h-81a5,5,0,0,1,-5,-5v-12a5,5,0,0,1,5,-5z"></path><g id="node_text15" fill="black"><text id="kity_text_121" text-rendering="inherit" font-size="12" dy=".8em" y="451.5" x="758.5">publications</text></g></g><g id="minder_node16"><g id="node_expander13" display="none" style="cursor: pointer;"><path id="kity_path_242" fill="white" stroke="gray" d="M879.5,457.5A6,6,0,1,1,867.5,457.5A6,6,0,1,1,879.5,457.5"></path><path id="kity_path_243" fill="none" stroke="gray"></path></g><path id="node_outline14" fill="none" stroke="none" d="M884.5,446.5h199a5,5,0,0,1,5,5v12a5,5,0,0,1,-5,5h-199a5,5,0,0,1,-5,-5v-12a5,5,0,0,1,5,-5z" stroke-width="3"></path><g id="node_text14" fill="black"><text id="kity_text_119" text-rendering="inherit" font-size="12" dy=".8em" y="451.5" x="889.5">Deepsea, Basset, Enformer. et. al</text></g></g><g id="minder_node17"><g id="node_expander20" style="cursor: pointer;"><path id="kity_path_263" fill="white" stroke="gray" d="M623.5,657.5A6,6,0,1,1,611.5,657.5A6,6,0,1,1,623.5,657.5"></path><path id="kity_path_264" fill="none" stroke="gray" d="M613,657.5L622,657.5"></path></g><path id="node_outline21" fill="rgb(238, 243, 246)" stroke="rgb(115, 161, 191)" d="M627.5,644.5h67a3,3,0,0,1,3,3v20a3,3,0,0,1,-3,3h-67a3,3,0,0,1,-3,-3v-20a3,3,0,0,1,3,-3z" stroke-width="1"></path><g id="node_text21" fill="black"><text id="kity_text_133" text-rendering="inherit" font-size="14" dy=".8em" y="650.5" x="644.5">data</text></g></g><g id="minder_node18"><g id="node_expander16" display="none" style="cursor: pointer;"><path id="kity_path_251" fill="white" stroke="gray" d="M737.5,579.5A6,6,0,1,1,725.5,579.5A6,6,0,1,1,737.5,579.5"></path><path id="kity_path_252" fill="none" stroke="gray"></path></g><path id="node_outline17" fill="none" stroke="none" d="M742.5,568.5h40a5,5,0,0,1,5,5v12a5,5,0,0,1,-5,5h-40a5,5,0,0,1,-5,-5v-12a5,5,0,0,1,5,-5z" stroke-width="3"></path><g id="node_text17" fill="black"><text id="kity_text_125" text-rendering="inherit" font-size="12" dy=".8em" y="573.5" x="747.5">Input</text></g></g><g id="minder_node19"><g id="node_expander17" display="none" style="cursor: pointer;"><path id="kity_path_254" fill="white" stroke="gray" d="M737.5,631.5A6,6,0,1,1,725.5,631.5A6,6,0,1,1,737.5,631.5"></path><path id="kity_path_255" fill="none" stroke="gray"></path></g><path id="node_outline18" fill="none" stroke="none" d="M742.5,620.5h51a5,5,0,0,1,5,5v12a5,5,0,0,1,-5,5h-51a5,5,0,0,1,-5,-5v-12a5,5,0,0,1,5,-5z" stroke-width="3"></path><g id="node_text18" fill="black"><text id="kity_text_127" text-rendering="inherit" font-size="12" dy=".8em" y="625.5" x="747.5">Output</text></g></g><g id="minder_node20"><g id="node_expander18" display="none" style="cursor: pointer;"><path id="kity_path_257" fill="white" stroke="gray" d="M737.5,683.5A6,6,0,1,1,725.5,683.5A6,6,0,1,1,737.5,683.5"></path><path id="kity_path_258" fill="none" stroke="gray"></path></g><path id="node_outline19" fill="none" stroke="none" d="M742.5,672.5h90a5,5,0,0,1,5,5v12a5,5,0,0,1,-5,5h-90a5,5,0,0,1,-5,-5v-12a5,5,0,0,1,5,-5z" stroke-width="3"></path><g id="node_text19" fill="black"><text id="kity_text_129" text-rendering="inherit" font-size="12" dy=".8em" y="677.5" x="747.5">train_test_split</text></g></g><g id="minder_node21"><g id="node_expander19" display="none" style="cursor: pointer;"><path id="kity_path_260" fill="white" stroke="gray" d="M737.5,735.5A6,6,0,1,1,725.5,735.5A6,6,0,1,1,737.5,735.5"></path><path id="kity_path_261" fill="none" stroke="gray"></path></g><path id="node_outline20" fill="none" stroke="none" d="M742.5,724.5h73a5,5,0,0,1,5,5v12a5,5,0,0,1,-5,5h-73a5,5,0,0,1,-5,-5v-12a5,5,0,0,1,5,-5z" stroke-width="3"></path><g id="node_text20" fill="black"><text id="kity_text_131" text-rendering="inherit" font-size="12" dy=".8em" y="729.5" x="747.5">h5-dataset</text></g></g><g id="minder_node22" opacity="1"><g id="node_expander25" style="cursor: pointer;"><path id="kity_path_278" fill="white" stroke="gray" d="M195.5,211.5A6,6,0,1,1,183.5,211.5A6,6,0,1,1,195.5,211.5"></path><path id="kity_path_279" fill="none" stroke="gray" d="M185,211.5L194,211.5"></path></g><path id="node_outline26" fill="rgb(238, 243, 246)" stroke="rgb(115, 161, 191)" d="M199.5,198.5h78a3,3,0,0,1,3,3v20a3,3,0,0,1,-3,3h-78a3,3,0,0,1,-3,-3v-20a3,3,0,0,1,3,-3z" stroke-width="1"></path><g id="node_text26" fill="black"><text id="kity_text_143" text-rendering="inherit" font-size="14" dy=".8em" y="204.5" x="216.5">Trainer</text></g></g><g id="minder_node27"><g id="node_expander28" style="cursor: pointer;"><path id="kity_path_287" fill="white" stroke="gray" d="M312.5,357.5A6,6,0,1,1,300.5,357.5A6,6,0,1,1,312.5,357.5"></path><path id="kity_path_288" fill="none" stroke="gray" d="M302,357.5L311,357.5"></path></g><path id="node_outline29" fill="rgb(238, 243, 246)" stroke="rgb(115, 161, 191)" d="M198.5,344.5h98a3,3,0,0,1,3,3v20a3,3,0,0,1,-3,3h-98a3,3,0,0,1,-3,-3v-20a3,3,0,0,1,3,-3z" stroke-width="1"></path><g id="node_text29" fill="black"><text id="kity_text_149" text-rendering="inherit" font-size="14" dy=".8em" y="350.5" x="215.5">Evaluator</text></g></g><g id="minder_node28"><g id="node_expander26" display="none" style="cursor: pointer;"><path id="kity_path_281" fill="white" stroke="gray" d="M167.5,331.5A6,6,0,1,1,155.5,331.5A6,6,0,1,1,167.5,331.5"></path><path id="kity_path_282" fill="none" stroke="gray"></path></g><path id="node_outline27" fill="none" stroke="none" d="M67.5,320.5h83a5,5,0,0,1,5,5v12a5,5,0,0,1,-5,5h-83a5,5,0,0,1,-5,-5v-12a5,5,0,0,1,5,-5z"></path><g id="node_text27" fill="black"><text id="kity_text_145" text-rendering="inherit" font-size="12" dy=".8em" y="325.5" x="72.5">auroc / aupr</text></g></g><g id="minder_node29"><g id="node_expander27" display="none" style="cursor: pointer;"><path id="kity_path_284" fill="white" stroke="gray" d="M167.5,383.5A6,6,0,1,1,155.5,383.5A6,6,0,1,1,167.5,383.5"></path><path id="kity_path_285" fill="none" stroke="gray"></path></g><path id="node_outline28" fill="none" stroke="none" d="M77.5,372.5h73a5,5,0,0,1,5,5v12a5,5,0,0,1,-5,5h-73a5,5,0,0,1,-5,-5v-12a5,5,0,0,1,5,-5z"></path><g id="node_text28" fill="black"><text id="kity_text_147" text-rendering="inherit" font-size="12" dy=".8em" y="377.5" x="82.5">correlation</text></g></g><g id="minder_node30" opacity="1"><g id="node_expander32" style="cursor: pointer;"><path id="kity_path_299" fill="white" stroke="gray" d="M312.5,653.5A6,6,0,1,1,300.5,653.5A6,6,0,1,1,312.5,653.5"></path><path id="kity_path_300" fill="none" stroke="gray" d="M302,653.5L311,653.5"></path></g><path id="node_outline33" fill="rgb(238, 243, 246)" stroke="rgb(115, 161, 191)" d="M228.5,640.5h68a3,3,0,0,1,3,3v20a3,3,0,0,1,-3,3h-68a3,3,0,0,1,-3,-3v-20a3,3,0,0,1,3,-3z" stroke-width="1"></path><g id="node_text33" fill="black"><text id="kity_text_157" text-rendering="inherit" font-size="14" dy=".8em" y="646.5" x="245.5">main</text></g></g><g id="minder_node34" opacity="1"><g id="node_expander33" display="none" style="cursor: pointer;"><path id="kity_path_307" fill="white" stroke="gray" d="M875.5,135.5A6,6,0,1,1,863.5,135.5A6,6,0,1,1,875.5,135.5"></path><path id="kity_path_308" fill="none" stroke="gray"></path></g><path id="node_outline34" fill="none" stroke="none" d="M880.5,124.5h47a5,5,0,0,1,5,5v12a5,5,0,0,1,-5,5h-47a5,5,0,0,1,-5,-5v-12a5,5,0,0,1,5,-5z" stroke-width="3"></path><g id="node_text34" fill="black"><text id="kity_text_304" text-rendering="inherit" font-size="12" dy=".8em" y="129.5" x="885.5">CBAM</text></g></g><g id="minder_node36" opacity="1"><g id="node_expander35" display="none" style="cursor: pointer;"><path id="kity_path_323" fill="white" stroke="gray" d="M993.5,405.5A6,6,0,1,1,981.5,405.5A6,6,0,1,1,993.5,405.5"></path><path id="kity_path_324" fill="none" stroke="gray"></path></g><path id="node_outline36" fill="none" stroke="none" d="M998.5,394.5h62a5,5,0,0,1,5,5v12a5,5,0,0,1,-5,5h-62a5,5,0,0,1,-5,-5v-12a5,5,0,0,1,5,-5z" stroke-width="3"></path><g id="node_text36" fill="black"><text id="kity_text_320" text-rendering="inherit" font-size="12" dy=".8em" y="399.5" x="1003.5">Predictor</text></g></g><g id="minder_node37" opacity="1"><g id="node_expander36" display="none" style="cursor: pointer;"><path id="kity_path_331" fill="white" stroke="gray" d="M748.5,513.5A6,6,0,1,1,736.5,513.5A6,6,0,1,1,748.5,513.5"></path><path id="kity_path_332" fill="none" stroke="gray"></path></g><path id="node_outline37" fill="none" stroke="none" d="M753.5,498.5h208a5,5,0,0,1,5,5v20a5,5,0,0,1,-5,5h-208a5,5,0,0,1,-5,-5v-20a5,5,0,0,1,5,-5z" stroke-width="3"></path><g id="node_text37" fill="black"><text id="kity_text_328" text-rendering="inherit" font-size="12" dy=".8em" y="507.5" x="783.5">Benchmarks in our manuscript</text></g><g id="node_progress1"><path id="kity_path_334" fill="#FFED83" stroke="none" d="M778,514A9,9,0,1,1,760,514A9,9,0,1,1,778,514"></path><path id="kity_path_335" fill="#43BC00" stroke="none" d="M769,514L778,514A9,9,0,0,1,760,514A9,9,0,0,1,778,514L769,514z"></path><path id="kity_path_336" fill="#8E8E8E" stroke="none" d="M769,507c4.418,0,8,3.582,8,8h1c0,-5.523,-3.477,-10,-9,-10S760,509.477,760,515h1C761,510.582,764.582,507,769,507z"></path><path id="kity_path_338" fill="#EEE" stroke="none" d="M774.812,511.896l-6.75,6.75l-4.5,-4.5L765.25,512.459l2.812,2.803l5.062,-5.053L774.812,511.896z"></path><path id="kity_path_337" fill="url(#kity_linearGradient_17)" stroke="none" d="M769,504C763.477,504,759,508.477,759,514c0,5.523,4.477,10,10,10s10,-4.477,10,-10C779,508.477,774.523,504,769,504zM769,522c-4.418,0,-8,-3.582,-8,-8s3.582,-8,8,-8s8,3.582,8,8S773.418,522,769,522z"></path></g></g><g id="minder_node38"><g id="node_expander37" style="cursor: pointer;"><path id="kity_path_345" fill="white" stroke="gray" d="M312.5,471.5A6,6,0,1,1,300.5,471.5A6,6,0,1,1,312.5,471.5"></path><path id="kity_path_346" fill="none" stroke="gray" d="M302,471.5L311,471.5"></path></g><path id="node_outline38" fill="rgb(238, 243, 246)" stroke="rgb(115, 161, 191)" d="M205.5,458.5h91a3,3,0,0,1,3,3v20a3,3,0,0,1,-3,3h-91a3,3,0,0,1,-3,-3v-20a3,3,0,0,1,3,-3z" stroke-width="1"></path><g id="node_text38" fill="black"><text id="kity_text_342" text-rendering="inherit" font-size="14" dy=".8em" y="464.5" x="222.5">Interpret</text></g></g><g id="minder_node39"><g id="node_expander38" display="none" style="cursor: pointer;"><path id="kity_path_369" fill="white" stroke="gray" d="M174.5,445.5A6,6,0,1,1,162.5,445.5A6,6,0,1,1,174.5,445.5"></path><path id="kity_path_370" fill="none" stroke="gray"></path></g><path id="node_outline39" fill="none" stroke="none" d="M113.5,434.5h44a5,5,0,0,1,5,5v12a5,5,0,0,1,-5,5h-44a5,5,0,0,1,-5,-5v-12a5,5,0,0,1,5,-5z" stroke-width="3"></path><g id="node_text39" fill="black"><text id="kity_text_366" text-rendering="inherit" font-size="12" dy=".8em" y="439.5" x="118.5">Motifs</text></g></g><g id="minder_node31"><g id="node_expander29" display="none" style="cursor: pointer;"><path id="kity_path_290" fill="white" stroke="gray" d="M197.5,563.5A6,6,0,1,1,185.5,563.5A6,6,0,1,1,197.5,563.5"></path><path id="kity_path_291" fill="none" stroke="gray"></path></g><path id="node_outline30" fill="none" stroke="none" d="M70.5,548.5h110a5,5,0,0,1,5,5v20a5,5,0,0,1,-5,5h-110a5,5,0,0,1,-5,-5v-20a5,5,0,0,1,5,-5z" stroke-width="3"></path><g id="node_text30" fill="black"><text id="kity_text_151" text-rendering="inherit" font-size="12" dy=".8em" y="557.5" x="100.5">load dataset</text></g><g id="node_priority1"><path id="kity_path_160" fill="#840023" stroke="none" d="M76,567c0,3.866,3.134,7,7,7h6c3.866,0,7,-3.134,7,-7V561H76V567z"></path><path id="kity_path_161" fill="#FF1200" stroke="none" d="M96,564c0,3.866,-3.134,7,-7,7H83c-3.866,0,-7,-3.134,-7,-7V561c0,-3.866,3.134,-7,7,-7h6c3.866,0,7,3.134,7,7V564z" opacity="0.8"></path><text id="kity_text_162" text-rendering="geometricPrecision" x="85" y="563.5" text-anchor="middle" font-style="italic" font-size="12" fill="white" dy="4.3203125">1</text></g></g><g id="minder_node32"><g id="node_expander30" display="none" style="cursor: pointer;"><path id="kity_path_293" fill="white" stroke="gray" d="M197.5,623.5A6,6,0,1,1,185.5,623.5A6,6,0,1,1,197.5,623.5"></path><path id="kity_path_294" fill="none" stroke="gray"></path></g><path id="node_outline31" fill="none" stroke="none" d="M25.5,608.5h155a5,5,0,0,1,5,5v20a5,5,0,0,1,-5,5h-155a5,5,0,0,1,-5,-5v-20a5,5,0,0,1,5,-5z" stroke-width="3"></path><g id="node_text31" fill="black"><text id="kity_text_153" text-rendering="inherit" font-size="12" dy=".8em" y="617.5" x="55.5">prepare model, et al</text></g><g id="node_priority2"><path id="kity_path_165" fill="#01467F" stroke="none" d="M31,627c0,3.866,3.134,7,7,7h6c3.866,0,7,-3.134,7,-7V621H31V627z"></path><path id="kity_path_166" fill="#0074FF" stroke="none" d="M51,624c0,3.866,-3.134,7,-7,7H38c-3.866,0,-7,-3.134,-7,-7V621c0,-3.866,3.134,-7,7,-7h6c3.866,0,7,3.134,7,7V624z" opacity="0.8"></path><text id="kity_text_167" text-rendering="geometricPrecision" x="40" y="623.5" text-anchor="middle" font-style="italic" font-size="12" fill="white" dy="4.3203125">2</text></g></g><g id="minder_node33"><g id="node_expander31" display="none" style="cursor: pointer;"><path id="kity_path_296" fill="white" stroke="gray" d="M197.5,683.5A6,6,0,1,1,185.5,683.5A6,6,0,1,1,197.5,683.5"></path><path id="kity_path_297" fill="none" stroke="gray"></path></g><path id="node_outline32" fill="none" stroke="none" d="M52.5,668.5h128a5,5,0,0,1,5,5v20a5,5,0,0,1,-5,5h-128a5,5,0,0,1,-5,-5v-20a5,5,0,0,1,5,-5z" stroke-width="3"></path><g id="node_text32" fill="black"><text id="kity_text_155" text-rendering="inherit" font-size="12" dy=".8em" y="677.5" x="82.5">Train &amp; Evaluate</text></g><g id="node_priority3"><path id="kity_path_170" fill="#006300" stroke="none" d="M58,687c0,3.866,3.134,7,7,7h6c3.866,0,7,-3.134,7,-7V681H58V687z"></path><path id="kity_path_171" fill="#00AF00" stroke="none" d="M78,684c0,3.866,-3.134,7,-7,7H65c-3.866,0,-7,-3.134,-7,-7V681c0,-3.866,3.134,-7,7,-7h6c3.866,0,7,3.134,7,7V684z" opacity="0.8"></path><text id="kity_text_172" text-rendering="geometricPrecision" x="67" y="683.5" text-anchor="middle" font-style="italic" font-size="12" fill="white" dy="4.3203125">3</text></g></g><g id="minder_node40"><g id="node_expander39" display="none" style="cursor: pointer;"><path id="kity_path_418" fill="white" stroke="gray" d="M197.5,743.5A6,6,0,1,1,185.5,743.5A6,6,0,1,1,197.5,743.5"></path><path id="kity_path_419" fill="none" stroke="gray"></path></g><path id="node_outline40" fill="none" stroke="none" d="M95.5,728.5h85a5,5,0,0,1,5,5v20a5,5,0,0,1,-5,5h-85a5,5,0,0,1,-5,-5v-20a5,5,0,0,1,5,-5z" stroke-width="3"></path><g id="node_text40" fill="black"><text id="kity_text_415" text-rendering="inherit" font-size="12" dy=".8em" y="737.5" x="125.5">Interpret</text></g><g id="node_priority4"><path id="kity_path_422" fill="#B25000" stroke="none" d="M101,747c0,3.866,3.134,7,7,7h6c3.866,0,7,-3.134,7,-7V741H101V747z"></path><path id="kity_path_423" fill="#FF962E" stroke="none" d="M121,744c0,3.866,-3.134,7,-7,7H108c-3.866,0,-7,-3.134,-7,-7V741c0,-3.866,3.134,-7,7,-7h6c3.866,0,7,3.134,7,7V744z" opacity="0.8"></path><text id="kity_text_424" text-rendering="geometricPrecision" x="110" y="743.5" text-anchor="middle" font-style="italic" font-size="12" fill="white" dy="4.3203125">4</text></g></g><g id="minder_node41"><g id="node_expander40" display="none" style="cursor: pointer;"><path id="kity_path_431" fill="white" stroke="gray" d="M174.5,497.5A6,6,0,1,1,162.5,497.5A6,6,0,1,1,174.5,497.5"></path><path id="kity_path_432" fill="none" stroke="gray"></path></g><path id="node_outline41" fill="none" stroke="none" d="M72.5,486.5h85a5,5,0,0,1,5,5v12a5,5,0,0,1,-5,5h-85a5,5,0,0,1,-5,-5v-12a5,5,0,0,1,5,-5z" stroke-width="3"></path><g id="node_text41" fill="black"><text id="kity_text_428" text-rendering="inherit" font-size="12" dy=".8em" y="491.5" x="77.5">feature-map</text></g></g><g id="kity_g_12" display="none"><path id="kity_path_13" fill="none" stroke="rgb(66, 94, 112)" d="M424.5,485.5h75a5,5,0,0,1,5,5v30a5,5,0,0,1,-5,5h-75a5,5,0,0,1,-5,-5v-30a5,5,0,0,1,5,-5z" stroke-width="5"></path></g><g id="minder_node23"><g id="node_expander21" display="none" style="cursor: pointer;"><path id="kity_path_266" fill="white" stroke="gray" d="M168.5,159.5A6,6,0,1,1,156.5,159.5A6,6,0,1,1,168.5,159.5"></path><path id="kity_path_267" fill="none" stroke="gray"></path></g><path id="node_outline22" fill="none" stroke="none" d="M115.5,148.5h36a5,5,0,0,1,5,5v12a5,5,0,0,1,-5,5h-36a5,5,0,0,1,-5,-5v-12a5,5,0,0,1,5,-5z" stroke-width="3"></path><g id="node_text22" fill="black"><text id="kity_text_135" text-rendering="inherit" font-size="12" dy=".8em" y="153.5" x="120.5">train</text></g></g><g id="minder_node24"><g id="node_expander22" display="none" style="cursor: pointer;"><path id="kity_path_269" fill="white" stroke="gray" d="M168.5,211.5A6,6,0,1,1,156.5,211.5A6,6,0,1,1,168.5,211.5"></path><path id="kity_path_270" fill="none" stroke="gray"></path></g><path id="node_outline23" fill="none" stroke="none" d="M99.5,200.5h52a5,5,0,0,1,5,5v12a5,5,0,0,1,-5,5h-52a5,5,0,0,1,-5,-5v-12a5,5,0,0,1,5,-5z" stroke-width="3"></path><g id="node_text23" fill="black"><text id="kity_text_137" text-rendering="inherit" font-size="12" dy=".8em" y="205.5" x="104.5">predict</text></g></g><g id="minder_node25"><g id="node_expander23" display="none" style="cursor: pointer;"><path id="kity_path_272" fill="white" stroke="gray" d="M168.5,263.5A6,6,0,1,1,156.5,263.5A6,6,0,1,1,168.5,263.5"></path><path id="kity_path_273" fill="none" stroke="gray"></path></g><path id="node_outline24" fill="none" stroke="none" d="M76.5,252.5h75a5,5,0,0,1,5,5v12a5,5,0,0,1,-5,5h-75a5,5,0,0,1,-5,-5v-12a5,5,0,0,1,5,-5z" stroke-width="3"></path><g id="node_text24" fill="black"><text id="kity_text_139" text-rendering="inherit" font-size="12" dy=".8em" y="257.5" x="81.5">Logs /&#xa0;save</text></g></g></g></g></svg>